<?xml version="1.0" encoding="UTF-8" standalone="no"?>
<!DOCTYPE svg PUBLIC "-//W3C//DTD SVG 1.1//EN"
 "http://www.w3.org/Graphics/SVG/1.1/DTD/svg11.dtd">
<!-- Generated by graphviz version 2.40.1 (20161225.0304)
 -->
<!-- Title: G Pages: 1 -->
<svg width="753pt" height="2392pt"
 viewBox="0.00 0.00 752.88 2392.00" xmlns="http://www.w3.org/2000/svg" xmlns:xlink="http://www.w3.org/1999/xlink">
<g id="graph0" class="graph" transform="scale(1 1) rotate(0) translate(4 2388)">
<title>G</title>
<polygon fill="#ffffff" stroke="transparent" points="-4,4 -4,-2388 748.8789,-2388 748.8789,4 -4,4"/>
<g id="clust1" class="cluster">
<title>cluster_Global</title>
<path fill="none" stroke="#c0c0c0" d="M289.8789,-8C289.8789,-8 724.8789,-8 724.8789,-8 730.8789,-8 736.8789,-14 736.8789,-20 736.8789,-20 736.8789,-2364 736.8789,-2364 736.8789,-2370 730.8789,-2376 724.8789,-2376 724.8789,-2376 289.8789,-2376 289.8789,-2376 283.8789,-2376 277.8789,-2370 277.8789,-2364 277.8789,-2364 277.8789,-20 277.8789,-20 277.8789,-14 283.8789,-8 289.8789,-8"/>
<text text-anchor="middle" x="507.3789" y="-2363.2" font-family="Times,serif" font-size="11.00" fill="#c0c0c0">Global</text>
</g>
<g id="clust2" class="cluster">
<title>cluster_\App</title>
<path fill="none" stroke="#c0c0c0" d="M297.8789,-16C297.8789,-16 716.8789,-16 716.8789,-16 722.8789,-16 728.8789,-22 728.8789,-28 728.8789,-28 728.8789,-2336 728.8789,-2336 728.8789,-2342 722.8789,-2348 716.8789,-2348 716.8789,-2348 297.8789,-2348 297.8789,-2348 291.8789,-2348 285.8789,-2342 285.8789,-2336 285.8789,-2336 285.8789,-28 285.8789,-28 285.8789,-22 291.8789,-16 297.8789,-16"/>
<text text-anchor="middle" x="507.3789" y="-2335.2" font-family="Times,serif" font-size="11.00" fill="#c0c0c0">App</text>
</g>
<g id="clust3" class="cluster">
<title>cluster_\App\Http</title>
<path fill="none" stroke="#c0c0c0" d="M305.8789,-24C305.8789,-24 708.8789,-24 708.8789,-24 714.8789,-24 720.8789,-30 720.8789,-36 720.8789,-36 720.8789,-2308 720.8789,-2308 720.8789,-2314 714.8789,-2320 708.8789,-2320 708.8789,-2320 305.8789,-2320 305.8789,-2320 299.8789,-2320 293.8789,-2314 293.8789,-2308 293.8789,-2308 293.8789,-36 293.8789,-36 293.8789,-30 299.8789,-24 305.8789,-24"/>
<text text-anchor="middle" x="507.3789" y="-2307.2" font-family="Times,serif" font-size="11.00" fill="#c0c0c0">Http</text>
</g>
<g id="clust4" class="cluster">
<title>cluster_\App\Http\Controllers</title>
<path fill="none" stroke="#c0c0c0" d="M313.8789,-32C313.8789,-32 700.8789,-32 700.8789,-32 706.8789,-32 712.8789,-38 712.8789,-44 712.8789,-44 712.8789,-2280 712.8789,-2280 712.8789,-2286 706.8789,-2292 700.8789,-2292 700.8789,-2292 313.8789,-2292 313.8789,-2292 307.8789,-2292 301.8789,-2286 301.8789,-2280 301.8789,-2280 301.8789,-44 301.8789,-44 301.8789,-38 307.8789,-32 313.8789,-32"/>
<text text-anchor="middle" x="507.3789" y="-2279.2" font-family="Times,serif" font-size="11.00" fill="#c0c0c0">Controllers</text>
</g>
<g id="clust5" class="cluster">
<title>cluster_\App\Http\Controllers\Auth</title>
<path fill="none" stroke="#c0c0c0" d="M496.8789,-1922C496.8789,-1922 673.8789,-1922 673.8789,-1922 679.8789,-1922 685.8789,-1928 685.8789,-1934 685.8789,-1934 685.8789,-2252 685.8789,-2252 685.8789,-2258 679.8789,-2264 673.8789,-2264 673.8789,-2264 496.8789,-2264 496.8789,-2264 490.8789,-2264 484.8789,-2258 484.8789,-2252 484.8789,-2252 484.8789,-1934 484.8789,-1934 484.8789,-1928 490.8789,-1922 496.8789,-1922"/>
<text text-anchor="middle" x="585.3789" y="-2251.2" font-family="Times,serif" font-size="11.00" fill="#c0c0c0">Auth</text>
</g>
<!-- \\App\\Http\\Controllers\\Auth\\ConfirmPasswordController -->
<g id="node1" class="node">
<title>\\App\\Http\\Controllers\\Auth\\ConfirmPasswordController</title>
<polygon fill="none" stroke="#000000" points="677.8789,-2236 492.8789,-2236 492.8789,-2200 677.8789,-2200 677.8789,-2236"/>
<text text-anchor="middle" x="585.3789" y="-2215.2" font-family="Courier,monospace" font-size="11.00" fill="#000000">ConfirmPasswordController</text>
</g>
<!-- \\App\\Http\\Controllers\\Controller -->
<g id="node37" class="node">
<title>\\App\\Http\\Controllers\\Controller</title>
<polygon fill="none" stroke="#000000" points="393.8789,-1156 309.8789,-1156 309.8789,-1120 393.8789,-1120 393.8789,-1156"/>
<text text-anchor="middle" x="351.8789" y="-1135.2" font-family="Courier,monospace" font-size="11.00" fill="#000000">Controller</text>
</g>
<!-- \\App\\Http\\Controllers\\Auth\\ConfirmPasswordController&#45;&gt;\\App\\Http\\Controllers\\Controller -->
<g id="edge11" class="edge">
<title>\\App\\Http\\Controllers\\Auth\\ConfirmPasswordController&#45;&gt;\\App\\Http\\Controllers\\Controller</title>
<path fill="none" stroke="#000000" d="M492.6903,-2209.6153C482.5409,-2205.2702 473.2398,-2199.2549 465.8789,-2191 395.5913,-2112.1763 359.6481,-1326.8033 353.0129,-1166.4862"/>
<polygon fill="none" stroke="#000000" points="356.4916,-1165.8904 352.5858,-1156.0418 349.4974,-1166.1765 356.4916,-1165.8904"/>
</g>
<!-- \\App\\Http\\Controllers\\Auth\\LoginController -->
<g id="node2" class="node">
<title>\\App\\Http\\Controllers\\Auth\\LoginController</title>
<polygon fill="none" stroke="#000000" points="644.3789,-2182 526.3789,-2182 526.3789,-2146 644.3789,-2146 644.3789,-2182"/>
<text text-anchor="middle" x="585.3789" y="-2161.2" font-family="Courier,monospace" font-size="11.00" fill="#000000">LoginController</text>
</g>
<!-- \\App\\Http\\Controllers\\Auth\\LoginController&#45;&gt;\\App\\Http\\Controllers\\Controller -->
<g id="edge12" class="edge">
<title>\\App\\Http\\Controllers\\Auth\\LoginController&#45;&gt;\\App\\Http\\Controllers\\Controller</title>
<path fill="none" stroke="#000000" d="M526.1904,-2164.3834C504.2257,-2161.3683 481.0035,-2153.863 465.8789,-2137 399.1504,-2062.6016 360.581,-1321.8956 353.1886,-1166.5029"/>
<polygon fill="none" stroke="#000000" points="356.6767,-1166.1676 352.7102,-1156.3433 349.6845,-1166.4969 356.6767,-1166.1676"/>
</g>
<!-- \\App\\Http\\Controllers\\Auth\\VerificationController -->
<g id="node3" class="node">
<title>\\App\\Http\\Controllers\\Auth\\VerificationController</title>
<polygon fill="none" stroke="#000000" points="667.8789,-2128 502.8789,-2128 502.8789,-2092 667.8789,-2092 667.8789,-2128"/>
<text text-anchor="middle" x="585.3789" y="-2107.2" font-family="Courier,monospace" font-size="11.00" fill="#000000">VerificationController</text>
</g>
<!-- \\App\\Http\\Controllers\\Auth\\VerificationController&#45;&gt;\\App\\Http\\Controllers\\Controller -->
<g id="edge13" class="edge">
<title>\\App\\Http\\Controllers\\Auth\\VerificationController&#45;&gt;\\App\\Http\\Controllers\\Controller</title>
<path fill="none" stroke="#000000" d="M502.6796,-2105.1695C488.7359,-2100.7752 475.6417,-2093.8148 465.8789,-2083 402.6819,-2012.9933 361.5421,-1316.3679 353.3757,-1166.364"/>
<polygon fill="none" stroke="#000000" points="356.8583,-1165.9448 352.8247,-1156.1478 349.8684,-1166.3218 356.8583,-1165.9448"/>
</g>
<!-- \\App\\Http\\Controllers\\Auth\\ForgotPasswordController -->
<g id="node4" class="node">
<title>\\App\\Http\\Controllers\\Auth\\ForgotPasswordController</title>
<polygon fill="none" stroke="#000000" points="674.8789,-2074 495.8789,-2074 495.8789,-2038 674.8789,-2038 674.8789,-2074"/>
<text text-anchor="middle" x="585.3789" y="-2053.2" font-family="Courier,monospace" font-size="11.00" fill="#000000">ForgotPasswordController</text>
</g>
<!-- \\App\\Http\\Controllers\\Auth\\ForgotPasswordController&#45;&gt;\\App\\Http\\Controllers\\Controller -->
<g id="edge14" class="edge">
<title>\\App\\Http\\Controllers\\Auth\\ForgotPasswordController&#45;&gt;\\App\\Http\\Controllers\\Controller</title>
<path fill="none" stroke="#000000" d="M495.7991,-2048.6801C484.4835,-2044.2839 474.0351,-2037.9699 465.8789,-2029 406.254,-1963.4265 362.629,-1311.7209 353.6049,-1166.5596"/>
<polygon fill="none" stroke="#000000" points="357.079,-1166.0307 352.9703,-1156.265 350.0923,-1166.4614 357.079,-1166.0307"/>
</g>
<!-- \\App\\Http\\Controllers\\Auth\\RegisterController -->
<g id="node5" class="node">
<title>\\App\\Http\\Controllers\\Auth\\RegisterController</title>
<polygon fill="none" stroke="#000000" points="654.3789,-2020 516.3789,-2020 516.3789,-1984 654.3789,-1984 654.3789,-2020"/>
<text text-anchor="middle" x="585.3789" y="-1999.2" font-family="Courier,monospace" font-size="11.00" fill="#000000">RegisterController</text>
</g>
<!-- \\App\\Http\\Controllers\\Auth\\RegisterController&#45;&gt;\\App\\Http\\Controllers\\Controller -->
<g id="edge15" class="edge">
<title>\\App\\Http\\Controllers\\Auth\\RegisterController&#45;&gt;\\App\\Http\\Controllers\\Controller</title>
<path fill="none" stroke="#000000" d="M516.1202,-2000.4642C497.4244,-1996.6368 478.8144,-1989.1106 465.8789,-1975 409.7952,-1913.8215 363.7586,-1306.3799 353.853,-1166.5844"/>
<polygon fill="none" stroke="#000000" points="357.3211,-1166.0059 353.1283,-1156.276 350.3383,-1166.4968 357.3211,-1166.0059"/>
</g>
<!-- \\App\\Http\\Controllers\\Auth\\ResetPasswordController -->
<g id="node6" class="node">
<title>\\App\\Http\\Controllers\\Auth\\ResetPasswordController</title>
<polygon fill="none" stroke="#000000" points="671.3789,-1966 499.3789,-1966 499.3789,-1930 671.3789,-1930 671.3789,-1966"/>
<text text-anchor="middle" x="585.3789" y="-1945.2" font-family="Courier,monospace" font-size="11.00" fill="#000000">ResetPasswordController</text>
</g>
<!-- \\App\\Http\\Controllers\\Auth\\ResetPasswordController&#45;&gt;\\App\\Http\\Controllers\\Controller -->
<g id="edge16" class="edge">
<title>\\App\\Http\\Controllers\\Auth\\ResetPasswordController&#45;&gt;\\App\\Http\\Controllers\\Controller</title>
<path fill="none" stroke="#000000" d="M499.136,-1945.4823C486.6334,-1941.5737 474.9479,-1935.4241 465.8789,-1926 411.8647,-1869.8715 364.5857,-1301.6391 354.059,-1166.6554"/>
<polygon fill="none" stroke="#000000" points="357.5203,-1166.0195 353.259,-1156.3194 350.5412,-1166.5598 357.5203,-1166.0195"/>
</g>
<!-- \\App\\Http\\Controllers\\UserController -->
<g id="node7" class="node">
<title>\\App\\Http\\Controllers\\UserController</title>
<polygon fill="none" stroke="#000000" points="640.8789,-1912 529.8789,-1912 529.8789,-1876 640.8789,-1876 640.8789,-1912"/>
<text text-anchor="middle" x="585.3789" y="-1891.2" font-family="Courier,monospace" font-size="11.00" fill="#000000">UserController</text>
</g>
<!-- \\App\\Http\\Controllers\\UserController&#45;&gt;\\App\\Http\\Controllers\\Controller -->
<g id="edge1" class="edge">
<title>\\App\\Http\\Controllers\\UserController&#45;&gt;\\App\\Http\\Controllers\\Controller</title>
<path fill="none" stroke="#000000" d="M529.6216,-1894.4612C506.8337,-1891.6772 482.0764,-1884.3223 465.8789,-1867 368.4151,-1762.768 354.2507,-1287.8103 352.216,-1166.352"/>
<polygon fill="none" stroke="#000000" points="355.7108,-1165.9779 352.0587,-1156.0324 348.7116,-1166.0846 355.7108,-1165.9779"/>
</g>
<!-- \\App\\Http\\Controllers\\Document_managerController -->
<g id="node8" class="node">
<title>\\App\\Http\\Controllers\\Document_managerController</title>
<polygon fill="none" stroke="#000000" points="681.3789,-1858 489.3789,-1858 489.3789,-1822 681.3789,-1822 681.3789,-1858"/>
<text text-anchor="middle" x="585.3789" y="-1837.2" font-family="Courier,monospace" font-size="11.00" fill="#000000">Document_managerController</text>
</g>
<!-- \\App\\Http\\Controllers\\Document_managerController&#45;&gt;\\App\\Http\\Controllers\\Controller -->
<g id="edge2" class="edge">
<title>\\App\\Http\\Controllers\\Document_managerController&#45;&gt;\\App\\Http\\Controllers\\Controller</title>
<path fill="none" stroke="#000000" d="M489.356,-1829.5116C480.5944,-1825.4113 472.5316,-1820.0284 465.8789,-1813 375.4543,-1717.4697 356.1718,-1282.4625 352.609,-1166.4857"/>
<polygon fill="none" stroke="#000000" points="356.1015,-1166.1739 352.3114,-1156.2802 349.1045,-1166.378 356.1015,-1166.1739"/>
</g>
<!-- \\App\\Http\\Controllers\\RoleController -->
<g id="node9" class="node">
<title>\\App\\Http\\Controllers\\RoleController</title>
<polygon fill="none" stroke="#000000" points="640.8789,-1804 529.8789,-1804 529.8789,-1768 640.8789,-1768 640.8789,-1804"/>
<text text-anchor="middle" x="585.3789" y="-1783.2" font-family="Courier,monospace" font-size="11.00" fill="#000000">RoleController</text>
</g>
<!-- \\App\\Http\\Controllers\\RoleController&#45;&gt;\\App\\Http\\Controllers\\Controller -->
<g id="edge3" class="edge">
<title>\\App\\Http\\Controllers\\RoleController&#45;&gt;\\App\\Http\\Controllers\\Controller</title>
<path fill="none" stroke="#000000" d="M529.8391,-1786.2551C507.0905,-1783.4339 482.3039,-1776.1068 465.8789,-1759 382.3902,-1672.046 358.2119,-1276.1074 353.0575,-1166.3081"/>
<polygon fill="none" stroke="#000000" points="356.5411,-1165.8635 352.5922,-1156.0321 349.5482,-1166.1802 356.5411,-1165.8635"/>
</g>
<!-- \\App\\Http\\Controllers\\Project_school_memberController -->
<g id="node10" class="node">
<title>\\App\\Http\\Controllers\\Project_school_memberController</title>
<polygon fill="none" stroke="#000000" points="698.3789,-1750 472.3789,-1750 472.3789,-1714 698.3789,-1714 698.3789,-1750"/>
<text text-anchor="middle" x="585.3789" y="-1729.2" font-family="Courier,monospace" font-size="11.00" fill="#000000">Project_school_memberController</text>
</g>
<!-- \\App\\Http\\Controllers\\Project_school_memberController&#45;&gt;\\App\\Http\\Controllers\\Controller -->
<g id="edge4" class="edge">
<title>\\App\\Http\\Controllers\\Project_school_memberController&#45;&gt;\\App\\Http\\Controllers\\Controller</title>
<path fill="none" stroke="#000000" d="M476.5691,-1713.9555C472.7378,-1711.3198 469.148,-1708.3479 465.8789,-1705 389.3199,-1626.5971 360.4381,-1269.6884 353.5884,-1166.2015"/>
<polygon fill="none" stroke="#000000" points="357.0792,-1165.9443 352.9429,-1156.1903 350.0937,-1166.3948 357.0792,-1165.9443"/>
</g>
<!-- \\App\\Http\\Controllers\\ProjectController -->
<g id="node11" class="node">
<title>\\App\\Http\\Controllers\\ProjectController</title>
<polygon fill="none" stroke="#000000" points="650.8789,-1696 519.8789,-1696 519.8789,-1660 650.8789,-1660 650.8789,-1696"/>
<text text-anchor="middle" x="585.3789" y="-1675.2" font-family="Courier,monospace" font-size="11.00" fill="#000000">ProjectController</text>
</g>
<!-- \\App\\Http\\Controllers\\ProjectController&#45;&gt;\\App\\Http\\Controllers\\Controller -->
<g id="edge5" class="edge">
<title>\\App\\Http\\Controllers\\ProjectController&#45;&gt;\\App\\Http\\Controllers\\Controller</title>
<path fill="none" stroke="#000000" d="M519.647,-1676.3204C500.0631,-1672.6432 480.0663,-1665.2378 465.8789,-1651 396.274,-1581.1482 362.934,-1263.4801 354.2443,-1166.3191"/>
<polygon fill="none" stroke="#000000" points="357.7081,-1165.7512 353.3488,-1156.0948 350.7348,-1166.3621 357.7081,-1165.7512"/>
</g>
<!-- \\App\\Http\\Controllers\\DM_container_folderController -->
<g id="node12" class="node">
<title>\\App\\Http\\Controllers\\DM_container_folderController</title>
<polygon fill="none" stroke="#000000" points="691.3789,-1642 479.3789,-1642 479.3789,-1606 691.3789,-1606 691.3789,-1642"/>
<text text-anchor="middle" x="585.3789" y="-1621.2" font-family="Courier,monospace" font-size="11.00" fill="#000000">DM_container_folderController</text>
</g>
<!-- \\App\\Http\\Controllers\\DM_container_folderController&#45;&gt;\\App\\Http\\Controllers\\Controller -->
<g id="edge6" class="edge">
<title>\\App\\Http\\Controllers\\DM_container_folderController&#45;&gt;\\App\\Http\\Controllers\\Controller</title>
<path fill="none" stroke="#000000" d="M479.1661,-1607.3149C474.3808,-1604.359 469.9065,-1600.943 465.8789,-1597 403.1555,-1535.5942 365.6842,-1256.5876 355.0366,-1166.2893"/>
<polygon fill="none" stroke="#000000" points="358.5,-1165.7703 353.8712,-1156.2401 351.5466,-1166.5767 358.5,-1165.7703"/>
</g>
<!-- \\App\\Http\\Controllers\\User_proposalController -->
<g id="node13" class="node">
<title>\\App\\Http\\Controllers\\User_proposalController</title>
<polygon fill="none" stroke="#000000" points="671.3789,-1588 499.3789,-1588 499.3789,-1552 671.3789,-1552 671.3789,-1588"/>
<text text-anchor="middle" x="585.3789" y="-1567.2" font-family="Courier,monospace" font-size="11.00" fill="#000000">User_proposalController</text>
</g>
<!-- \\App\\Http\\Controllers\\User_proposalController&#45;&gt;\\App\\Http\\Controllers\\Controller -->
<g id="edge7" class="edge">
<title>\\App\\Http\\Controllers\\User_proposalController&#45;&gt;\\App\\Http\\Controllers\\Controller</title>
<path fill="none" stroke="#000000" d="M499.0763,-1562.3101C486.8083,-1558.0382 475.2122,-1551.8587 465.8789,-1543 409.921,-1489.888 368.6903,-1248.6683 355.9832,-1165.9417"/>
<polygon fill="none" stroke="#000000" points="359.4365,-1165.3688 354.4778,-1156.006 352.5154,-1166.4175 359.4365,-1165.3688"/>
</g>
<!-- \\App\\Http\\Controllers\\Resource_centerController -->
<g id="node14" class="node">
<title>\\App\\Http\\Controllers\\Resource_centerController</title>
<polygon fill="none" stroke="#000000" points="677.8789,-1534 492.8789,-1534 492.8789,-1498 677.8789,-1498 677.8789,-1534"/>
<text text-anchor="middle" x="585.3789" y="-1513.2" font-family="Courier,monospace" font-size="11.00" fill="#000000">Resource_centerController</text>
</g>
<!-- \\App\\Http\\Controllers\\Resource_centerController&#45;&gt;\\App\\Http\\Controllers\\Controller -->
<g id="edge8" class="edge">
<title>\\App\\Http\\Controllers\\Resource_centerController&#45;&gt;\\App\\Http\\Controllers\\Controller</title>
<path fill="none" stroke="#000000" d="M492.7384,-1505.4878C482.8957,-1501.456 473.6574,-1496.0952 465.8789,-1489 416.8133,-1444.2451 372.4573,-1241.8056 357.3581,-1166.4104"/>
<polygon fill="none" stroke="#000000" points="360.7206,-1165.3723 355.3456,-1156.2422 353.8538,-1166.7315 360.7206,-1165.3723"/>
</g>
<!-- \\App\\Http\\Controllers\\WikiController -->
<g id="node15" class="node">
<title>\\App\\Http\\Controllers\\WikiController</title>
<polygon fill="none" stroke="#000000" points="640.8789,-1480 529.8789,-1480 529.8789,-1444 640.8789,-1444 640.8789,-1480"/>
<text text-anchor="middle" x="585.3789" y="-1459.2" font-family="Courier,monospace" font-size="11.00" fill="#000000">WikiController</text>
</g>
<!-- \\App\\Http\\Controllers\\WikiController&#45;&gt;\\App\\Http\\Controllers\\Controller -->
<g id="edge9" class="edge">
<title>\\App\\Http\\Controllers\\WikiController&#45;&gt;\\App\\Http\\Controllers\\Controller</title>
<path fill="none" stroke="#000000" d="M529.7656,-1460.5212C507.6779,-1457.3156 483.4113,-1450.1691 465.8789,-1435 383.5036,-1363.7285 360.3912,-1225.9951 354.1206,-1166.5072"/>
<polygon fill="none" stroke="#000000" points="357.584,-1165.9593 353.1352,-1156.3437 350.6166,-1166.6348 357.584,-1165.9593"/>
</g>
<!-- \\App\\Http\\Controllers\\Mail_messageController -->
<g id="node16" class="node">
<title>\\App\\Http\\Controllers\\Mail_messageController</title>
<polygon fill="none" stroke="#000000" points="667.8789,-1426 502.8789,-1426 502.8789,-1390 667.8789,-1390 667.8789,-1426"/>
<text text-anchor="middle" x="585.3789" y="-1405.2" font-family="Courier,monospace" font-size="11.00" fill="#000000">Mail_messageController</text>
</g>
<!-- \\App\\Http\\Controllers\\Mail_messageController&#45;&gt;\\App\\Http\\Controllers\\Controller -->
<g id="edge10" class="edge">
<title>\\App\\Http\\Controllers\\Mail_messageController&#45;&gt;\\App\\Http\\Controllers\\Controller</title>
<path fill="none" stroke="#000000" d="M502.7624,-1399.7088C489.4606,-1395.5746 476.5706,-1389.5961 465.8789,-1381 396.5427,-1325.2535 367.2201,-1217.5024 356.7925,-1166.3203"/>
<polygon fill="none" stroke="#000000" points="360.1882,-1165.446 354.8465,-1156.2963 353.3165,-1166.7801 360.1882,-1165.446"/>
</g>
<!-- \\App\\Http\\Controllers\\HistoryController -->
<g id="node17" class="node">
<title>\\App\\Http\\Controllers\\HistoryController</title>
<polygon fill="none" stroke="#000000" points="650.8789,-1372 519.8789,-1372 519.8789,-1336 650.8789,-1336 650.8789,-1372"/>
<text text-anchor="middle" x="585.3789" y="-1351.2" font-family="Courier,monospace" font-size="11.00" fill="#000000">HistoryController</text>
</g>
<!-- \\App\\Http\\Controllers\\HistoryController&#45;&gt;\\App\\Http\\Controllers\\Controller -->
<g id="edge17" class="edge">
<title>\\App\\Http\\Controllers\\HistoryController&#45;&gt;\\App\\Http\\Controllers\\Controller</title>
<path fill="none" stroke="#000000" d="M519.6934,-1348.8608C500.9948,-1344.9389 481.4876,-1338.2645 465.8789,-1327 409.1849,-1286.0851 375.3963,-1207.4859 360.6616,-1165.7024"/>
<polygon fill="none" stroke="#000000" points="363.9469,-1164.4922 357.4033,-1156.1596 357.3224,-1166.7541 363.9469,-1164.4922"/>
</g>
<!-- \\App\\Http\\Controllers\\Chat_memberController -->
<g id="node18" class="node">
<title>\\App\\Http\\Controllers\\Chat_memberController</title>
<polygon fill="none" stroke="#000000" points="664.3789,-1318 506.3789,-1318 506.3789,-1282 664.3789,-1282 664.3789,-1318"/>
<text text-anchor="middle" x="585.3789" y="-1297.2" font-family="Courier,monospace" font-size="11.00" fill="#000000">Chat_memberController</text>
</g>
<!-- \\App\\Http\\Controllers\\Chat_memberController&#45;&gt;\\App\\Http\\Controllers\\Controller -->
<g id="edge18" class="edge">
<title>\\App\\Http\\Controllers\\Chat_memberController&#45;&gt;\\App\\Http\\Controllers\\Controller</title>
<path fill="none" stroke="#000000" d="M506.0662,-1289.6779C492.0482,-1285.7736 478.0585,-1280.3984 465.8789,-1273 421.685,-1246.1548 386.2648,-1196.1323 367.2246,-1165.0933"/>
<polygon fill="none" stroke="#000000" points="369.9899,-1162.8984 361.8499,-1156.1167 363.9841,-1166.4943 369.9899,-1162.8984"/>
</g>
<!-- \\App\\Http\\Controllers\\Dm_fileController -->
<g id="node19" class="node">
<title>\\App\\Http\\Controllers\\Dm_fileController</title>
<polygon fill="none" stroke="#000000" points="650.8789,-1264 519.8789,-1264 519.8789,-1228 650.8789,-1228 650.8789,-1264"/>
<text text-anchor="middle" x="585.3789" y="-1243.2" font-family="Courier,monospace" font-size="11.00" fill="#000000">Dm_fileController</text>
</g>
<!-- \\App\\Http\\Controllers\\Dm_fileController&#45;&gt;\\App\\Http\\Controllers\\Controller -->
<g id="edge19" class="edge">
<title>\\App\\Http\\Controllers\\Dm_fileController&#45;&gt;\\App\\Http\\Controllers\\Controller</title>
<path fill="none" stroke="#000000" d="M519.6828,-1236.0306C501.7681,-1232.0165 482.6781,-1226.5017 465.8789,-1219 434.0336,-1204.7794 402.0323,-1181.014 380.0771,-1162.893"/>
<polygon fill="none" stroke="#000000" points="382.084,-1160.0079 372.1757,-1156.256 377.5817,-1165.3679 382.084,-1160.0079"/>
</g>
<!-- \\App\\Http\\Controllers\\Company_userController -->
<g id="node20" class="node">
<title>\\App\\Http\\Controllers\\Company_userController</title>
<polygon fill="none" stroke="#000000" points="667.8789,-1210 502.8789,-1210 502.8789,-1174 667.8789,-1174 667.8789,-1210"/>
<text text-anchor="middle" x="585.3789" y="-1189.2" font-family="Courier,monospace" font-size="11.00" fill="#000000">Company_userController</text>
</g>
<!-- \\App\\Http\\Controllers\\Company_userController&#45;&gt;\\App\\Http\\Controllers\\Controller -->
<g id="edge20" class="edge">
<title>\\App\\Http\\Controllers\\Company_userController&#45;&gt;\\App\\Http\\Controllers\\Controller</title>
<path fill="none" stroke="#000000" d="M505.0028,-1173.9595C491.9207,-1170.9888 478.5193,-1167.9248 465.8789,-1165 445.6298,-1160.3147 423.382,-1155.0677 403.9575,-1150.4541"/>
<polygon fill="none" stroke="#000000" points="404.6212,-1147.0144 394.0827,-1148.1055 403.0014,-1153.8244 404.6212,-1147.0144"/>
</g>
<!-- \\App\\Http\\Controllers\\SchoolController -->
<g id="node21" class="node">
<title>\\App\\Http\\Controllers\\SchoolController</title>
<polygon fill="none" stroke="#000000" points="647.8789,-1156 522.8789,-1156 522.8789,-1120 647.8789,-1120 647.8789,-1156"/>
<text text-anchor="middle" x="585.3789" y="-1135.2" font-family="Courier,monospace" font-size="11.00" fill="#000000">SchoolController</text>
</g>
<!-- \\App\\Http\\Controllers\\SchoolController&#45;&gt;\\App\\Http\\Controllers\\Controller -->
<g id="edge21" class="edge">
<title>\\App\\Http\\Controllers\\SchoolController&#45;&gt;\\App\\Http\\Controllers\\Controller</title>
<path fill="none" stroke="#000000" d="M522.8052,-1138C485.6737,-1138 439.148,-1138 404.0162,-1138"/>
<polygon fill="none" stroke="#000000" points="403.9655,-1134.5001 393.9654,-1138 403.9654,-1141.5001 403.9655,-1134.5001"/>
</g>
<!-- \\App\\Http\\Controllers\\Proposal_tagController -->
<g id="node22" class="node">
<title>\\App\\Http\\Controllers\\Proposal_tagController</title>
<polygon fill="none" stroke="#000000" points="667.8789,-1102 502.8789,-1102 502.8789,-1066 667.8789,-1066 667.8789,-1102"/>
<text text-anchor="middle" x="585.3789" y="-1081.2" font-family="Courier,monospace" font-size="11.00" fill="#000000">Proposal_tagController</text>
</g>
<!-- \\App\\Http\\Controllers\\Proposal_tagController&#45;&gt;\\App\\Http\\Controllers\\Controller -->
<g id="edge22" class="edge">
<title>\\App\\Http\\Controllers\\Proposal_tagController&#45;&gt;\\App\\Http\\Controllers\\Controller</title>
<path fill="none" stroke="#000000" d="M505.0028,-1102.0405C491.9207,-1105.0112 478.5193,-1108.0752 465.8789,-1111 445.6298,-1115.6853 423.382,-1120.9323 403.9575,-1125.5459"/>
<polygon fill="none" stroke="#000000" points="403.0014,-1122.1756 394.0827,-1127.8945 404.6212,-1128.9856 403.0014,-1122.1756"/>
</g>
<!-- \\App\\Http\\Controllers\\School_proposalsController -->
<g id="node23" class="node">
<title>\\App\\Http\\Controllers\\School_proposalsController</title>
<polygon fill="none" stroke="#000000" points="681.3789,-1048 489.3789,-1048 489.3789,-1012 681.3789,-1012 681.3789,-1048"/>
<text text-anchor="middle" x="585.3789" y="-1027.2" font-family="Courier,monospace" font-size="11.00" fill="#000000">School_proposalsController</text>
</g>
<!-- \\App\\Http\\Controllers\\School_proposalsController&#45;&gt;\\App\\Http\\Controllers\\Controller -->
<g id="edge23" class="edge">
<title>\\App\\Http\\Controllers\\School_proposalsController&#45;&gt;\\App\\Http\\Controllers\\Controller</title>
<path fill="none" stroke="#000000" d="M489.6809,-1048.0203C481.493,-1050.6393 473.4531,-1053.6177 465.8789,-1057 434.0336,-1071.2206 402.0323,-1094.986 380.0771,-1113.107"/>
<polygon fill="none" stroke="#000000" points="377.5817,-1110.6321 372.1757,-1119.744 382.084,-1115.9921 377.5817,-1110.6321"/>
</g>
<!-- \\App\\Http\\Controllers\\ArticleController -->
<g id="node24" class="node">
<title>\\App\\Http\\Controllers\\ArticleController</title>
<polygon fill="none" stroke="#000000" points="650.8789,-994 519.8789,-994 519.8789,-958 650.8789,-958 650.8789,-994"/>
<text text-anchor="middle" x="585.3789" y="-973.2" font-family="Courier,monospace" font-size="11.00" fill="#000000">ArticleController</text>
</g>
<!-- \\App\\Http\\Controllers\\ArticleController&#45;&gt;\\App\\Http\\Controllers\\Controller -->
<g id="edge24" class="edge">
<title>\\App\\Http\\Controllers\\ArticleController&#45;&gt;\\App\\Http\\Controllers\\Controller</title>
<path fill="none" stroke="#000000" d="M519.8211,-982.9324C501.4306,-986.9146 482.0577,-993.1723 465.8789,-1003 421.685,-1029.8452 386.2648,-1079.8677 367.2246,-1110.9067"/>
<polygon fill="none" stroke="#000000" points="363.9841,-1109.5057 361.8499,-1119.8833 369.9899,-1113.1016 363.9841,-1109.5057"/>
</g>
<!-- \\App\\Http\\Controllers\\BlogController -->
<g id="node25" class="node">
<title>\\App\\Http\\Controllers\\BlogController</title>
<polygon fill="none" stroke="#000000" points="640.8789,-940 529.8789,-940 529.8789,-904 640.8789,-904 640.8789,-940"/>
<text text-anchor="middle" x="585.3789" y="-919.2" font-family="Courier,monospace" font-size="11.00" fill="#000000">BlogController</text>
</g>
<!-- \\App\\Http\\Controllers\\BlogController&#45;&gt;\\App\\Http\\Controllers\\Controller -->
<g id="edge25" class="edge">
<title>\\App\\Http\\Controllers\\BlogController&#45;&gt;\\App\\Http\\Controllers\\Controller</title>
<path fill="none" stroke="#000000" d="M529.8117,-925.2574C508.2375,-928.7799 484.3334,-935.6818 465.8789,-949 409.1849,-989.9149 375.3963,-1068.5141 360.6616,-1110.2976"/>
<polygon fill="none" stroke="#000000" points="357.3224,-1109.2459 357.4033,-1119.8404 363.9469,-1111.5078 357.3224,-1109.2459"/>
</g>
<!-- \\App\\Http\\Controllers\\TagController -->
<g id="node26" class="node">
<title>\\App\\Http\\Controllers\\TagController</title>
<polygon fill="none" stroke="#000000" points="637.3789,-886 533.3789,-886 533.3789,-850 637.3789,-850 637.3789,-886"/>
<text text-anchor="middle" x="585.3789" y="-865.2" font-family="Courier,monospace" font-size="11.00" fill="#000000">TagController</text>
</g>
<!-- \\App\\Http\\Controllers\\TagController&#45;&gt;\\App\\Http\\Controllers\\Controller -->
<g id="edge26" class="edge">
<title>\\App\\Http\\Controllers\\TagController&#45;&gt;\\App\\Http\\Controllers\\Controller</title>
<path fill="none" stroke="#000000" d="M533.3078,-869.6822C510.5399,-872.7909 484.7758,-879.8068 465.8789,-895 396.5427,-950.7465 367.2201,-1058.4976 356.7925,-1109.6797"/>
<polygon fill="none" stroke="#000000" points="353.3165,-1109.2199 354.8465,-1119.7037 360.1882,-1110.554 353.3165,-1109.2199"/>
</g>
<!-- \\App\\Http\\Controllers\\Project_company_memberController -->
<g id="node27" class="node">
<title>\\App\\Http\\Controllers\\Project_company_memberController</title>
<polygon fill="none" stroke="#000000" points="701.8789,-832 468.8789,-832 468.8789,-796 701.8789,-796 701.8789,-832"/>
<text text-anchor="middle" x="585.3789" y="-811.2" font-family="Courier,monospace" font-size="11.00" fill="#000000">Project_company_memberController</text>
</g>
<!-- \\App\\Http\\Controllers\\Project_company_memberController&#45;&gt;\\App\\Http\\Controllers\\Controller -->
<g id="edge27" class="edge">
<title>\\App\\Http\\Controllers\\Project_company_memberController&#45;&gt;\\App\\Http\\Controllers\\Controller</title>
<path fill="none" stroke="#000000" d="M478.3442,-832.1033C473.9261,-834.709 469.7392,-837.66 465.8789,-841 383.5036,-912.2715 360.3912,-1050.0049 354.1206,-1109.4928"/>
<polygon fill="none" stroke="#000000" points="350.6166,-1109.3652 353.1352,-1119.6563 357.584,-1110.0407 350.6166,-1109.3652"/>
</g>
<!-- \\App\\Http\\Controllers\\ChatController -->
<g id="node28" class="node">
<title>\\App\\Http\\Controllers\\ChatController</title>
<polygon fill="none" stroke="#000000" points="640.8789,-778 529.8789,-778 529.8789,-742 640.8789,-742 640.8789,-778"/>
<text text-anchor="middle" x="585.3789" y="-757.2" font-family="Courier,monospace" font-size="11.00" fill="#000000">ChatController</text>
</g>
<!-- \\App\\Http\\Controllers\\ChatController&#45;&gt;\\App\\Http\\Controllers\\Controller -->
<g id="edge28" class="edge">
<title>\\App\\Http\\Controllers\\ChatController&#45;&gt;\\App\\Http\\Controllers\\Controller</title>
<path fill="none" stroke="#000000" d="M529.6708,-760.9863C507.4363,-764.0964 483.086,-771.3047 465.8789,-787 416.8133,-831.7549 372.4573,-1034.1944 357.3581,-1109.5896"/>
<polygon fill="none" stroke="#000000" points="353.8538,-1109.2685 355.3456,-1119.7578 360.7206,-1110.6277 353.8538,-1109.2685"/>
</g>
<!-- \\App\\Http\\Controllers\\TicketController -->
<g id="node29" class="node">
<title>\\App\\Http\\Controllers\\TicketController</title>
<polygon fill="none" stroke="#000000" points="647.8789,-724 522.8789,-724 522.8789,-688 647.8789,-688 647.8789,-724"/>
<text text-anchor="middle" x="585.3789" y="-703.2" font-family="Courier,monospace" font-size="11.00" fill="#000000">TicketController</text>
</g>
<!-- \\App\\Http\\Controllers\\TicketController&#45;&gt;\\App\\Http\\Controllers\\Controller -->
<g id="edge29" class="edge">
<title>\\App\\Http\\Controllers\\TicketController&#45;&gt;\\App\\Http\\Controllers\\Controller</title>
<path fill="none" stroke="#000000" d="M522.594,-707.7067C502.2679,-711.256 481.0745,-718.5772 465.8789,-733 409.921,-786.112 368.6903,-1027.3317 355.9832,-1110.0583"/>
<polygon fill="none" stroke="#000000" points="352.5154,-1109.5825 354.4778,-1119.994 359.4365,-1110.6312 352.5154,-1109.5825"/>
</g>
<!-- \\App\\Http\\Controllers\\CityController -->
<g id="node30" class="node">
<title>\\App\\Http\\Controllers\\CityController</title>
<polygon fill="none" stroke="#000000" points="640.8789,-670 529.8789,-670 529.8789,-634 640.8789,-634 640.8789,-670"/>
<text text-anchor="middle" x="585.3789" y="-649.2" font-family="Courier,monospace" font-size="11.00" fill="#000000">CityController</text>
</g>
<!-- \\App\\Http\\Controllers\\CityController&#45;&gt;\\App\\Http\\Controllers\\Controller -->
<g id="edge30" class="edge">
<title>\\App\\Http\\Controllers\\CityController&#45;&gt;\\App\\Http\\Controllers\\Controller</title>
<path fill="none" stroke="#000000" d="M529.7273,-652.3178C507.2339,-655.28 482.6733,-662.5584 465.8789,-679 403.1555,-740.4058 365.6842,-1019.4124 355.0366,-1109.7107"/>
<polygon fill="none" stroke="#000000" points="351.5466,-1109.4233 353.8712,-1119.7599 358.5,-1110.2297 351.5466,-1109.4233"/>
</g>
<!-- \\App\\Http\\Controllers\\School_for_validationController -->
<g id="node31" class="node">
<title>\\App\\Http\\Controllers\\School_for_validationController</title>
<polygon fill="none" stroke="#000000" points="698.3789,-616 472.3789,-616 472.3789,-580 698.3789,-580 698.3789,-616"/>
<text text-anchor="middle" x="585.3789" y="-595.2" font-family="Courier,monospace" font-size="11.00" fill="#000000">School_for_validationController</text>
</g>
<!-- \\App\\Http\\Controllers\\School_for_validationController&#45;&gt;\\App\\Http\\Controllers\\Controller -->
<g id="edge31" class="edge">
<title>\\App\\Http\\Controllers\\School_for_validationController&#45;&gt;\\App\\Http\\Controllers\\Controller</title>
<path fill="none" stroke="#000000" d="M476.6536,-616.1279C472.7995,-618.7411 469.1818,-621.6854 465.8789,-625 396.274,-694.8518 362.934,-1012.5199 354.2443,-1109.6809"/>
<polygon fill="none" stroke="#000000" points="350.7348,-1109.6379 353.3488,-1119.9052 357.7081,-1110.2488 350.7348,-1109.6379"/>
</g>
<!-- \\App\\Http\\Controllers\\MessageController -->
<g id="node32" class="node">
<title>\\App\\Http\\Controllers\\MessageController</title>
<polygon fill="none" stroke="#000000" points="650.8789,-562 519.8789,-562 519.8789,-526 650.8789,-526 650.8789,-562"/>
<text text-anchor="middle" x="585.3789" y="-541.2" font-family="Courier,monospace" font-size="11.00" fill="#000000">MessageController</text>
</g>
<!-- \\App\\Http\\Controllers\\MessageController&#45;&gt;\\App\\Http\\Controllers\\Controller -->
<g id="edge32" class="edge">
<title>\\App\\Http\\Controllers\\MessageController&#45;&gt;\\App\\Http\\Controllers\\Controller</title>
<path fill="none" stroke="#000000" d="M519.7849,-545.451C500.0916,-549.0979 479.9957,-556.5432 465.8789,-571 389.3199,-649.4029 360.4381,-1006.3116 353.5884,-1109.7985"/>
<polygon fill="none" stroke="#000000" points="350.0937,-1109.6052 352.9429,-1119.8097 357.0792,-1110.0557 350.0937,-1109.6052"/>
</g>
<!-- \\App\\Http\\Controllers\\CommentController -->
<g id="node33" class="node">
<title>\\App\\Http\\Controllers\\CommentController</title>
<polygon fill="none" stroke="#000000" points="650.8789,-508 519.8789,-508 519.8789,-472 650.8789,-472 650.8789,-508"/>
<text text-anchor="middle" x="585.3789" y="-487.2" font-family="Courier,monospace" font-size="11.00" fill="#000000">CommentController</text>
</g>
<!-- \\App\\Http\\Controllers\\CommentController&#45;&gt;\\App\\Http\\Controllers\\Controller -->
<g id="edge33" class="edge">
<title>\\App\\Http\\Controllers\\CommentController&#45;&gt;\\App\\Http\\Controllers\\Controller</title>
<path fill="none" stroke="#000000" d="M519.6397,-491.3104C499.9377,-494.9488 479.8733,-502.4247 465.8789,-517 382.3902,-603.954 358.2119,-999.8926 353.0575,-1109.6919"/>
<polygon fill="none" stroke="#000000" points="349.5482,-1109.8198 352.5922,-1119.9679 356.5411,-1110.1365 349.5482,-1109.8198"/>
</g>
<!-- \\App\\Http\\Controllers\\Company_for_validationsController -->
<g id="node34" class="node">
<title>\\App\\Http\\Controllers\\Company_for_validationsController</title>
<polygon fill="none" stroke="#000000" points="704.8789,-454 465.8789,-454 465.8789,-418 704.8789,-418 704.8789,-454"/>
<text text-anchor="middle" x="585.3789" y="-433.2" font-family="Courier,monospace" font-size="11.00" fill="#000000">Company_for_validationsController</text>
</g>
<!-- \\App\\Http\\Controllers\\Company_for_validationsController&#45;&gt;\\App\\Http\\Controllers\\Controller -->
<g id="edge34" class="edge">
<title>\\App\\Http\\Controllers\\Company_for_validationsController&#45;&gt;\\App\\Http\\Controllers\\Controller</title>
<path fill="none" stroke="#000000" d="M476.1792,-454.1006C472.4809,-456.7252 469.0225,-459.6789 465.8789,-463 375.4543,-558.5303 356.1718,-993.5375 352.609,-1109.5143"/>
<polygon fill="none" stroke="#000000" points="349.1045,-1109.622 352.3114,-1119.7198 356.1015,-1109.8261 349.1045,-1109.622"/>
</g>
<!-- \\App\\Http\\Controllers\\ProposalController -->
<g id="node35" class="node">
<title>\\App\\Http\\Controllers\\ProposalController</title>
<polygon fill="none" stroke="#000000" points="654.3789,-400 516.3789,-400 516.3789,-364 654.3789,-364 654.3789,-400"/>
<text text-anchor="middle" x="585.3789" y="-379.2" font-family="Courier,monospace" font-size="11.00" fill="#000000">ProposalController</text>
</g>
<!-- \\App\\Http\\Controllers\\ProposalController&#45;&gt;\\App\\Http\\Controllers\\Controller -->
<g id="edge35" class="edge">
<title>\\App\\Http\\Controllers\\ProposalController&#45;&gt;\\App\\Http\\Controllers\\Controller</title>
<path fill="none" stroke="#000000" d="M516.2952,-383.6978C497.6043,-387.5298 478.9531,-395.0178 465.8789,-409 368.4151,-513.232 354.2507,-988.1897 352.216,-1109.648"/>
<polygon fill="none" stroke="#000000" points="348.7116,-1109.9154 352.0587,-1119.9676 355.7108,-1110.0221 348.7116,-1109.9154"/>
</g>
<!-- \\App\\Http\\Controllers\\VoteController -->
<g id="node36" class="node">
<title>\\App\\Http\\Controllers\\VoteController</title>
<polygon fill="none" stroke="#000000" points="640.8789,-346 529.8789,-346 529.8789,-310 640.8789,-310 640.8789,-346"/>
<text text-anchor="middle" x="585.3789" y="-325.2" font-family="Courier,monospace" font-size="11.00" fill="#000000">VoteController</text>
</g>
<!-- \\App\\Http\\Controllers\\VoteController&#45;&gt;\\App\\Http\\Controllers\\Controller -->
<g id="edge36" class="edge">
<title>\\App\\Http\\Controllers\\VoteController&#45;&gt;\\App\\Http\\Controllers\\Controller</title>
<path fill="none" stroke="#000000" d="M529.8408,-327.4204C506.9524,-330.1608 482.0571,-337.5144 465.8789,-355 413.3052,-411.8222 364.9299,-975.6501 354.1207,-1109.5714"/>
<polygon fill="none" stroke="#000000" points="350.609,-1109.5782 353.2989,-1119.8258 357.5866,-1110.1374 350.609,-1109.5782"/>
</g>
<!-- \\Illuminate\\Routing\\Controller -->
<g id="node43" class="node">
<title>\\Illuminate\\Routing\\Controller</title>
<ellipse fill="none" stroke="#000000" cx="118.9394" cy="-1138" rx="118.8789" ry="18"/>
<text text-anchor="middle" x="118.9394" y="-1134.3" font-family="Times,serif" font-size="14.00" fill="#c0c0c0">\Illuminate\Routing\Controller</text>
</g>
<!-- \\App\\Http\\Controllers\\Controller&#45;&gt;\\Illuminate\\Routing\\Controller -->
<g id="edge37" class="edge">
<title>\\App\\Http\\Controllers\\Controller&#45;&gt;\\Illuminate\\Routing\\Controller</title>
<path fill="none" stroke="#000000" d="M309.6953,-1138C292.0727,-1138 270.5559,-1138 248.4041,-1138"/>
<polygon fill="none" stroke="#000000" points="248.1934,-1134.5001 238.1933,-1138 248.1933,-1141.5001 248.1934,-1134.5001"/>
</g>
<!-- \\App\\Http\\Controllers\\CompanyController -->
<g id="node38" class="node">
<title>\\App\\Http\\Controllers\\CompanyController</title>
<polygon fill="none" stroke="#000000" points="650.8789,-292 519.8789,-292 519.8789,-256 650.8789,-256 650.8789,-292"/>
<text text-anchor="middle" x="585.3789" y="-271.2" font-family="Courier,monospace" font-size="11.00" fill="#000000">CompanyController</text>
</g>
<!-- \\App\\Http\\Controllers\\CompanyController&#45;&gt;\\App\\Http\\Controllers\\Controller -->
<g id="edge38" class="edge">
<title>\\App\\Http\\Controllers\\CompanyController&#45;&gt;\\App\\Http\\Controllers\\Controller</title>
<path fill="none" stroke="#000000" d="M519.8588,-274.8188C499.9309,-278.389 479.6768,-285.9487 465.8789,-301 409.7952,-362.1785 363.7586,-969.6201 353.853,-1109.4156"/>
<polygon fill="none" stroke="#000000" points="350.3383,-1109.5032 353.1283,-1119.724 357.3211,-1109.9941 350.3383,-1109.5032"/>
</g>
<!-- \\App\\Http\\Controllers\\School_usersController -->
<g id="node39" class="node">
<title>\\App\\Http\\Controllers\\School_usersController</title>
<polygon fill="none" stroke="#000000" points="667.8789,-238 502.8789,-238 502.8789,-202 667.8789,-202 667.8789,-238"/>
<text text-anchor="middle" x="585.3789" y="-217.2" font-family="Courier,monospace" font-size="11.00" fill="#000000">School_usersController</text>
</g>
<!-- \\App\\Http\\Controllers\\School_usersController&#45;&gt;\\App\\Http\\Controllers\\Controller -->
<g id="edge39" class="edge">
<title>\\App\\Http\\Controllers\\School_usersController&#45;&gt;\\App\\Http\\Controllers\\Controller</title>
<path fill="none" stroke="#000000" d="M502.7422,-224.8872C488.7928,-229.2764 475.6806,-236.2204 465.8789,-247 406.254,-312.5735 362.629,-964.2791 353.6049,-1109.4404"/>
<polygon fill="none" stroke="#000000" points="350.0923,-1109.5386 352.9703,-1119.735 357.079,-1109.9693 350.0923,-1109.5386"/>
</g>
<!-- \\App\\Http\\Controllers\\PostController -->
<g id="node40" class="node">
<title>\\App\\Http\\Controllers\\PostController</title>
<polygon fill="none" stroke="#000000" points="640.8789,-184 529.8789,-184 529.8789,-148 640.8789,-148 640.8789,-184"/>
<text text-anchor="middle" x="585.3789" y="-163.2" font-family="Courier,monospace" font-size="11.00" fill="#000000">PostController</text>
</g>
<!-- \\App\\Http\\Controllers\\PostController&#45;&gt;\\App\\Http\\Controllers\\Controller -->
<g id="edge40" class="edge">
<title>\\App\\Http\\Controllers\\PostController&#45;&gt;\\App\\Http\\Controllers\\Controller</title>
<path fill="none" stroke="#000000" d="M529.6361,-165.2334C506.7099,-167.9391 481.8415,-175.3174 465.8789,-193 402.6819,-263.0067 361.5421,-959.6321 353.3757,-1109.636"/>
<polygon fill="none" stroke="#000000" points="349.8684,-1109.6782 352.8247,-1119.8522 356.8583,-1110.0552 349.8684,-1109.6782"/>
</g>
<!-- \\App\\Http\\Controllers\\Dm_folderController -->
<g id="node41" class="node">
<title>\\App\\Http\\Controllers\\Dm_folderController</title>
<polygon fill="none" stroke="#000000" points="657.8789,-130 512.8789,-130 512.8789,-94 657.8789,-94 657.8789,-130"/>
<text text-anchor="middle" x="585.3789" y="-109.2" font-family="Courier,monospace" font-size="11.00" fill="#000000">Dm_folderController</text>
</g>
<!-- \\App\\Http\\Controllers\\Dm_folderController&#45;&gt;\\App\\Http\\Controllers\\Controller -->
<g id="edge41" class="edge">
<title>\\App\\Http\\Controllers\\Dm_folderController&#45;&gt;\\App\\Http\\Controllers\\Controller</title>
<path fill="none" stroke="#000000" d="M512.811,-114.0317C495.1796,-118.0434 477.9501,-125.5413 465.8789,-139 399.1504,-213.3984 360.581,-954.1044 353.1886,-1109.4971"/>
<polygon fill="none" stroke="#000000" points="349.6845,-1109.5031 352.7102,-1119.6567 356.6767,-1109.8324 349.6845,-1109.5031"/>
</g>
<!-- \\App\\Http\\Controllers\\User_projectController -->
<g id="node42" class="node">
<title>\\App\\Http\\Controllers\\User_projectController</title>
<polygon fill="none" stroke="#000000" points="667.8789,-76 502.8789,-76 502.8789,-40 667.8789,-40 667.8789,-76"/>
<text text-anchor="middle" x="585.3789" y="-55.2" font-family="Courier,monospace" font-size="11.00" fill="#000000">User_projectController</text>
</g>
<!-- \\App\\Http\\Controllers\\User_projectController&#45;&gt;\\App\\Http\\Controllers\\Controller -->
<g id="edge42" class="edge">
<title>\\App\\Http\\Controllers\\User_projectController&#45;&gt;\\App\\Http\\Controllers\\Controller</title>
<path fill="none" stroke="#000000" d="M502.8783,-62.6389C488.8298,-67.036 475.6463,-74.0464 465.8789,-85 395.5913,-163.8237 359.6481,-949.1967 353.0129,-1109.5138"/>
<polygon fill="none" stroke="#000000" points="349.4974,-1109.8235 352.5858,-1119.9582 356.4916,-1110.1096 349.4974,-1109.8235"/>
</g>
</g>
</svg>
